#format: frame checksums
#version: 1
#hash: MD5
#tb 0: 1/24
#stream#, dts,        pts, duration,     size, hash
0,          0,          0,        1,    38016, 872e9922f37f0e92c767d33e0a15b8e0
0,          1,          1,        1,    38016, ea5ad6c6ee4355018fc0ba83b5172836
0,          2,          2,        1,    38016, fe744612b2167c9ba6e1dc81c031e16a
0,          3,          3,        1,    38016, 744359695caee3f32307a2d7eef09e85
0,          4,          4,        1,    38016, 07211ac8d8bae4d931ade402ff6e3c12
0,          5,          5,        1,    38016, 2ce02854f228b1378d9dc34cab8d343b
0,          6,          6,        1,    38016, af5222ad42c4f22f22fbf19c26c02dcb
0,          7,          7,        1,    38016, 88538d39f2647df8fedf15bd1b767bbf
0,          8,          8,        1,    38016, d0d936471dd4e9922eb067c0f09eacab
0,          9,          9,        1,    38016, 03cb1f5c5026e96f6e686aa1fa9b1028
0,         10,         10,        1,    38016, 2ebe35e23d2244c5b0f777fbc01f8f37
0,         11,         11,        1,    38016, f9314f5ea91ebbaaed6e37ca0701ed67
0,         12,         12,        1,    38016, 37dca7530d09fd1e8bad154b9e312ea2
0,         13,         13,        1,    38016, 9841dc8ff6424abe362c4dfe03b5fbd0
0,         14,         14,        1,    38016, 72bd0b70c576dfb544f622c488217491
0,         15,         15,        1,    38016, 309b21c126153f20f312e38a8dad44e1
0,         16,         16,        1,    38016, 0acbb170ede66ebdae4e9d8e56908f75
0,         17,         17,        1,    38016, 318c9c3e531d00734b5f78433da176c9
0,         18,         18,        1,    38016, 0388dfdb2a792148b44bdb705cc2df99
0,         19,         19,        1,    38016, f440adff2b44888becbf3ca16e425441
0,         20,         20,        1,    38016, ac41431627d8d1712d40412ab8c3200c
0,         21,         21,        1,    38016, 417e1abbfe2a078663dae688ae4a9bb1
0,         22,         22,        1,    38016, 73d493bdf4a29d5cfeec610109f582a8
0,         23,         23,        1,    38016, 3c026a536ef36467d4a9db6bcc20cec1
0,         24,         24,        1,    38016, 57836430f2f10862b84541d99cca062c
0,         25,         25,        1,    38016, 04ad6fa97e1ff49931b574bdaaddd5db
0,         26,         26,        1,    38016, e94f2ec4cbf2b9067a4a4307eadebb6f
0,         27,         27,        1,    38016, e3542cdee672d97c65ab06dbe611247d
0,         28,         28,        1,    38016, 6c83c6c76aa8bf73646eb7a714cb42bf
0,         29,         29,        1,    38016, b5f64c6fc6d0c777a0a0b9097862f171
0,         30,         30,        1,    38016, 293dccaf5027759679bb9e8696b6381a
0,         31,         31,        1,    38016, 1a3d015ff9b164cb7922aef0aeac520e
0,         32,         32,        1,    38016, 93f9152d9425f0ec43160a0c01c485b2
0,         33,         33,        1,    38016, c7c4a8f78f781f70cedc44edc1d06911
0,         34,         34,        1,    38016, 21330442d5bef415fd765759d867c98b
0,         35,         35,        1,    38016, 6164258040f85206a3833aeb4f27a34f
0,         36,         36,        1,    38016, 3213e1405dfe6588a7334a8bc2b1e47f
0,         37,         37,        1,    38016, a619fa73f0081a349dfa2b000de19045
0,         38,         38,        1,    38016, 1f3cec4bb793dc4a118ddcf500090f37
0,         39,         39,        1,    38016, 12308ec77632ca10f1451aec8e62b82f
0,         40,         40,        1,    38016, 018c7f50ed4a494a9fcd32fdfed6705f
0,         41,         41,        1,    38016, a7282728fbd7e0b49a6967b0ea4e1f61
0,         42,         42,        1,    38016, 6aa15ab83e82f246ee9c7b7a040bfaac
0,         43,         43,        1,    38016, e4c17d2603e03753d54a142491cf5dc0
0,         44,         44,        1,    38016, 0a7331aa707e42e732f04e9175438195
0,         45,         45,        1,    38016, b522cfa3f3c706d1901231bb9e6b4b8a
0,         46,         46,        1,    38016, 7b2a70e47d9af98cfa6216ed2a7d528c
0,         47,         47,        1,    38016, b56e22bc9beacff9c3207b2757fc7f94
0,         48,         48,        1,    38016, a3dfc9461c0480cf56ee465ddabf0de1
